<?xml version="1.0" encoding="UTF-8" standalone="no"?>
<!DOCTYPE svg PUBLIC "-//W3C//DTD SVG 1.1//EN" "http://www.w3.org/Graphics/SVG/1.1/DTD/svg11.dtd">
<svg width="100%" height="100%" viewBox="0 0 600 600" version="1.1" xmlns="http://www.w3.org/2000/svg" xmlns:xlink="http://www.w3.org/1999/xlink" xml:space="preserve" xmlns:serif="http://www.serif.com/" style="fill-rule:evenodd;clip-rule:evenodd;stroke-linecap:round;stroke-linejoin:round;stroke-miterlimit:1.5;">
    <g transform="matrix(1,0,0,1,-11450,-1182.86)">
        <g id="Layer5">
        </g>
        <g id="Artboard3" transform="matrix(1,0,0,1,11450,1182.86)">
            <rect x="0" y="0" width="600" height="600" style="fill:none;"/>
            <g transform="matrix(0.901653,0,0,0.9,-46.2683,3.54013)">
                <g id="Layer6">
                    <g id="Ismas">
                        <g transform="matrix(0.574114,0,0,0.527956,36.0245,13.878)">
                            <ellipse cx="607.132" cy="597.63" rx="522.545" ry="568.23" style="fill:none;stroke:rgb(118,255,229);stroke-width:60.38px;"/>
                        </g>
                        <g transform="matrix(0.820108,0,0,0.823493,292.621,139.97)">
                            <ellipse cx="218.139" cy="484.126" rx="78.132" ry="79.117" style="fill:none;stroke:rgb(118,255,229);stroke-width:40.52px;"/>
                        </g>
                        <g transform="matrix(1.4165,0,0,1.21786,-433.167,-235.409)">
                            <path d="M619.468,703.292C619.468,703.292 680.862,697.72 683.615,640.387C686.445,581.439 510.946,230.007 509.488,229.869" style="fill:none;stroke:rgb(118,255,229);stroke-width:25.21px;stroke-linecap:butt;"/>
                        </g>
                        <g transform="matrix(1.11111,0,0,1.11111,51.2539,-3.93348)">
                            <path d="M306.175,225.363L38.228,351.433" style="fill:none;stroke:rgb(118,255,229);stroke-width:29.97px;"/>
                        </g>
                    </g>
                </g>
            </g>
        </g>
        <g id="Vie-Liste" serif:id="Vie’Liste">
        </g>
        <g id="Ash">
        </g>
    </g>
</svg>
