<?xml version="1.0" encoding="UTF-8" standalone="no"?>
<!DOCTYPE svg PUBLIC "-//W3C//DTD SVG 1.1//EN" "http://www.w3.org/Graphics/SVG/1.1/DTD/svg11.dtd">
<svg width="100%" height="100%" viewBox="0 0 200 200" version="1.1" xmlns="http://www.w3.org/2000/svg" xmlns:xlink="http://www.w3.org/1999/xlink" xml:space="preserve" xmlns:serif="http://www.serif.com/" style="fill-rule:evenodd;clip-rule:evenodd;stroke-linejoin:round;stroke-miterlimit:2;">
    <g transform="matrix(1,0,0,1,-1538,0)">
        <g id="Artboard2" transform="matrix(0.746405,0,0,0.980695,389.877,550.666)">
            <rect x="1538.2" y="-561.506" width="267.951" height="203.937" style="fill:none;"/>
            <g id="Layer1" transform="matrix(0.252941,0.141557,-0.146966,0.152119,1649.09,-591.566)">
                <path d="M191.488,990C180.819,986.362 -82.283,394.365 52.595,316.655C157.871,256.001 351.197,502.704 382.5,540.094C487.505,665.517 586.065,849.572 699.583,767.12C849.269,658.399 572.182,51.44 520.742,0" style="fill-opacity:0.07;"/>
                <path d="M191.488,990C184.353,987.437 66.071,717.288 30.579,517.858C21.839,468.748 18.121,424.047 22.641,388.953C26.517,358.858 36.532,336.158 55.747,325.417C94.769,303.534 145.763,327.252 195.673,364.729C277.665,426.298 356.168,527.294 375.011,550.135C414.155,597.153 452.267,652.509 490.842,698.777C520.871,734.794 551.23,765.374 582.078,783.362C621.74,806.49 662.332,809.458 704.611,778.206C730.448,758.979 745.027,726.697 750.172,685.079C755.562,641.471 750.641,587.27 738.644,528.516C727.548,474.174 710.532,415.824 690.596,358.408C631.327,187.702 546.832,25.172 520.742,-0C550.323,30.618 653.939,252.092 705.439,451.766C724.012,523.775 735.883,592.829 734.505,648.911C733.303,697.814 722.164,736.485 694.556,756.035C658.663,781.647 624.6,778.072 591.393,758.145C562.638,740.889 534.61,711.662 506.491,677.894C467.932,631.59 429.345,576.799 389.989,530.052C370.512,507.13 289.339,405.54 204.907,344.636C149.276,304.506 92.106,282.652 49.443,307.893C31.16,318.732 19.345,337.803 13.118,363.345C3.47,402.921 7.446,458.764 19.891,521.089C59.665,720.276 184.265,987.669 191.488,990Z" style="fill-opacity:0.5;"/>
                <path d="M32.71,793.481C31.417,791.192 41.875,764.192 42.872,761.609C54.867,730.538 69.103,700.28 84.682,670.859C139.477,567.385 251.729,417.25 368.58,378.028C443.119,353.007 454.977,420.789 437.813,476.437C430.187,501.16 417.526,524.263 403.863,546.122C401.797,549.429 388.103,566.268 389.366,570.685C389.403,570.816 389.632,570.859 389.727,570.889C402.129,574.835 415.131,577.471 427.838,580.162C437.594,582.228 447.391,584.059 457.241,585.613C473.128,588.12 489.114,589.836 505.191,590.408C597.891,593.707 702.631,560.861 772.555,498.648C799.718,474.48 831.57,436.214 830.094,397.366C829.093,370.987 806.444,358.974 782.529,357.31C747.185,354.85 700.657,375.853 679.189,404.988" style="fill-opacity:0.07;"/>
                <path d="M406.036,561.611C409,558.492 411.891,555.754 412.51,554.778C420.985,541.392 429.097,527.547 435.953,513.144C440.812,502.934 445.026,492.43 448.376,481.656C459.318,446.013 458.918,406.164 443.018,382.267C429.8,362.399 405.431,351.287 365.856,365.03C319.336,381.563 273.51,414.907 232.064,456.574C168.201,520.777 114.577,603.889 82.021,668.602C74.58,683.566 67.478,698.701 60.826,714.051C54.1,729.571 47.844,745.265 42.154,761.165C41.554,762.84 37.325,774.613 34.693,783.504C33.199,788.553 32.221,792.667 32.71,793.481C32.263,792.637 33.426,788.631 35.14,783.734C38.168,775.081 42.916,763.676 43.59,762.053C49.971,746.678 56.909,731.553 64.295,716.627C71.583,701.9 79.296,687.408 87.343,673.116C116.443,620.927 161.143,557.185 213.319,502.265C261.404,451.652 315.859,408.462 371.304,391.025C399.195,381.985 416.607,386.402 425.769,400.459C436.93,417.584 435.088,445.925 427.249,471.219C424.39,480.565 420.737,489.651 416.594,498.536C410.332,511.965 402.952,524.93 395.217,537.467C393.306,540.571 382.595,554.604 379.972,561.863C377.961,567.427 378.246,572.201 379.176,575.348C379.659,576.984 380.345,578.548 381.347,579.922C382.635,581.686 385.545,583.714 387.086,584.182C392.27,585.757 397.549,587.12 402.871,588.346C410.6,590.127 418.412,591.635 426.119,593.16C426.119,593.16 455.993,598.288 455.993,598.288C464.1,599.456 472.229,600.428 480.383,601.144C488.541,601.861 496.72,602.333 504.922,602.51C551.104,603.316 600.128,595.395 646.383,579.315C694.565,562.565 739.708,537.079 775.554,504.046C791.403,489.391 808.77,469.906 820.253,448.399C828.976,432.063 834.352,414.588 833.438,397.162C832.768,384.39 827.688,374.677 819.834,367.77C810.327,359.409 796.693,355.179 782.65,354.526C765.224,353.737 745.204,358.577 726.79,367.282C707.516,376.394 690.021,389.69 679.189,404.988C690.402,390.364 708.149,378.047 727.534,369.959C745.762,362.353 765.428,358.498 782.408,360.093C795.36,361.295 807.892,365.572 816.45,373.699C822.558,379.499 826.511,387.353 826.751,397.569C827.116,413.08 821.717,428.293 813.554,442.441C802.064,462.354 785.002,480.033 769.556,493.249C734.021,523.762 689.642,546.419 642.607,560.806C597.551,574.588 550.051,580.702 505.46,578.306C497.601,577.916 489.768,577.237 481.959,576.333C474.11,575.425 466.288,574.276 458.49,572.938C458.49,572.938 429.557,567.165 429.557,567.165C422.05,565.469 414.44,563.791 406.916,561.845L406.036,561.611ZM400.216,568.59C398.776,570.825 398.256,572.679 399.645,573.522C401.361,574.563 400.841,571.236 400.216,568.59Z" style="fill-opacity:0.5;"/>
                <g id="Layer68" transform="matrix(3.43789,-3.19921,2.52793,4.3508,-5497.48,5313.42)">
                    <g transform="matrix(0.188796,0.138825,-0.109696,0.149182,1620.76,-29.48)">
                        <path d="M191.488,990C180.819,986.362 -82.283,394.365 52.595,316.655C157.871,256.001 351.197,502.704 382.5,540.094C487.505,665.517 586.065,849.572 699.583,767.12C849.269,658.399 572.182,51.44 520.742,0" style="fill-opacity:0.07;"/>
                        <path d="M191.488,990C184.35,987.444 65.869,717.38 30.243,517.959C21.459,468.787 17.711,424.022 22.217,388.872C26.104,358.557 36.201,335.702 55.549,324.866C94.686,302.881 145.877,326.534 195.963,364.098C278.032,425.647 356.619,526.66 375.482,549.504C414.633,596.513 452.759,651.852 491.334,698.121C521.302,734.067 551.589,764.604 582.371,782.57C621.829,805.599 662.215,808.58 704.295,777.509C729.986,758.42 744.462,726.32 749.598,684.957C755.004,641.432 750.105,587.325 738.168,528.663C727.114,474.337 710.143,415.997 690.264,358.585C631.139,187.834 546.806,25.203 520.742,-0C550.352,30.583 654.189,251.95 705.844,451.59C724.491,523.656 736.412,592.78 735.065,648.924C733.885,698.138 722.644,737.034 694.872,756.731C658.777,782.517 624.509,778.968 591.1,758.937C562.279,741.658 534.178,712.389 505.999,678.55C467.44,632.248 428.868,577.439 389.518,530.684C370.062,507.763 288.972,406.194 204.617,345.267C149.168,305.218 92.19,283.312 49.641,308.444C31.473,319.195 19.74,338.147 13.539,363.516C3.885,403.013 7.844,458.76 20.227,520.988C59.866,720.18 184.268,987.661 191.488,990Z"/>
                    </g>
                    <g transform="matrix(0.188796,0.138825,-0.109696,0.149182,1620.76,-29.48)">
                        <path d="M32.71,793.481C31.417,791.192 41.875,764.192 42.872,761.609C54.867,730.538 69.103,700.28 84.682,670.859C139.477,567.385 251.729,417.25 368.58,378.028C443.119,353.007 454.977,420.789 437.813,476.437C430.187,501.16 417.526,524.263 403.863,546.122C401.797,549.429 388.103,566.268 389.366,570.685C389.403,570.816 389.632,570.859 389.727,570.889C402.129,574.835 415.131,577.471 427.838,580.162C437.594,582.228 447.391,584.059 457.241,585.613C473.128,588.12 489.114,589.836 505.191,590.408C597.891,593.707 702.631,560.861 772.555,498.648C799.718,474.48 831.57,436.214 830.094,397.366C829.093,370.987 806.444,358.974 782.529,357.31C747.185,354.85 700.657,375.853 679.189,404.988" style="fill-opacity:0.07;"/>
                        <path d="M404.552,562.085C407.828,558.555 411.28,555.317 411.967,554.234C420.418,540.874 428.508,527.058 435.344,512.684C440.181,502.516 444.378,492.057 447.712,481.328C458.557,446.011 458.225,406.525 442.476,382.838C429.387,363.152 405.236,352.26 366.027,365.847C319.569,382.3 273.807,415.57 232.387,457.108C168.501,521.177 114.8,604.131 82.189,668.744C74.728,683.686 67.607,698.803 60.935,714.132C54.189,729.632 47.911,745.31 42.199,761.192C41.597,762.866 37.351,774.628 34.707,783.511C33.206,788.555 32.222,792.666 32.71,793.481C32.261,792.638 33.418,788.629 35.126,783.727C38.142,775.067 42.874,763.649 43.545,762.025C49.904,746.635 56.821,731.49 64.186,716.546C71.454,701.8 79.148,687.287 87.176,672.974C116.225,620.708 160.859,556.828 213.002,501.803C261.106,451.04 315.621,407.739 371.133,390.208C399.392,381.028 417.024,385.646 426.311,399.887C437.619,417.226 435.85,445.929 427.913,471.547C425.038,480.938 421.368,490.068 417.203,498.995C410.922,512.455 403.518,525.447 395.76,538.011C393.861,541.094 383.2,555.019 380.59,562.23C378.675,567.521 378.934,572.06 379.816,575.055C380.269,576.589 380.914,578.055 381.853,579.344C383.062,581.004 385.803,582.905 387.252,583.347C392.423,584.922 397.69,586.286 402.998,587.513C410.721,589.299 418.527,590.813 426.228,592.343L456.071,597.492C464.169,598.664 472.288,599.642 480.432,600.365C488.58,601.087 496.748,601.566 504.939,601.749C551.07,602.607 600.047,594.739 646.264,578.733C694.409,562.059 739.529,536.659 775.365,503.707C791.202,489.099 808.559,469.667 820.043,448.212C828.749,431.946 834.122,414.541 833.228,397.175C832.574,384.483 827.525,374.831 819.727,367.956C810.251,359.602 796.651,355.372 782.643,354.701C765.231,353.886 745.221,358.696 726.814,367.366C707.536,376.446 690.033,389.711 679.189,404.988C690.39,390.343 708.129,377.994 727.51,369.875C745.745,362.235 765.422,358.348 782.416,359.918C795.401,361.104 807.97,365.377 816.556,373.512C822.718,379.35 826.709,387.26 826.961,397.556C827.342,413.127 821.947,428.413 813.764,442.629C802.274,462.59 785.204,480.328 769.744,493.589C734.199,524.178 689.796,546.928 642.726,561.388C597.632,575.24 550.084,581.415 505.443,579.067C497.573,578.683 489.73,578.011 481.91,577.113C474.051,576.21 466.219,575.068 458.412,573.734L429.449,567.982C421.936,566.292 414.319,564.619 406.789,562.678L404.552,562.085ZM399.463,568.393C398.117,570.553 397.67,572.334 399.027,573.156C400.65,574.139 400.065,570.843 399.463,568.393Z"/>
                    </g>
                </g>
            </g>
        </g>
    </g>
</svg>
